# File created by Blade
# Date/Time:  Tue Jan 27 18:55:59 2015
#---------------------------------------------------------
:version 1.10
:name HOM
:units
  mass 1.0
  length 1.000000
  angle deg
:documentation
     Acclaim Skeleton File
:root
   axis xyz
   order TX TY TZ RX RY RZ
   position 0.000000 0.000000 0.000000
   orientation 0 0 0
:bonedata
   begin
      id 1
      name Spine_dum
      direction 0.000000 1.000000 0.000000
      length 5.195262
      axis 0.0 0.0 0.0 xyz
   end
   begin
      id 2
      name LeftUpLeg_dum
      direction 1.000000 0.000000 0.000000
      length 3.351363
      axis 0.0 0.0 0.0 xyz
   end
   begin
      id 3
      name RightUpLeg_dum
      direction -1.000000 0.000000 0.000000
      length 3.351363
      axis 0.0 0.0 0.0 xyz
   end
   begin
      id 4
      name Spine
      direction 0.000000 1.000000 0.000000
      length 0.000000
      axis 0.0 0.0 0.0 xyz
      dof rx ry rz
   end
   begin
      id 5
      name Spine_dum1
      direction 0.000000 1.000000 0.000000
      length 15.653875
      axis 0.0 0.0 0.0 xyz
   end
   begin
      id 6
      name Spine_dum2
      direction 0.000000 1.000000 0.000000
      length 10.329768
      axis 0.0 0.0 0.0 xyz
   end
   begin
      id 7
      name Spine_dum3
      direction 0.000000 1.000000 0.000000
      length 10.329768
      axis 0.0 0.0 0.0 xyz
   end
   begin
      id 8
      name Head
      direction 0.000000 1.000000 0.000000
      length 4.527550
      axis 0.0 0.0 0.0 xyz
      dof rx ry rz
   end
   begin
      id 9
      name LeftShoulder
      direction 1.000000 0.000000 0.000000
      length 6.996006
      axis 0.0 0.0 -90.0 xyz
      dof rx ry rz
   end
   begin
      id 10
      name LeftArm
      direction 1.000000 0.000000 0.000000
      length 10.209302
      axis 0.0 0.0 -90.0 xyz
      dof rx ry rz
   end
   begin
      id 11
      name LeftForeArm
      direction 1.000000 0.000000 0.000000
      length 8.563163
      axis 0.0 0.0 -90.0 xyz
      dof ry rz rx
   end
   begin
      id 12
      name LeftHand
      direction 0.000000 0.000000 0.000000
      length 0.000000
      axis 0.0 0.0 -90.0 xyz
      dof rx ry rz
   end
   begin
      id 13
      name LeftHand_dum1
      direction 0.000000 0.000000 0.000000
      length 0.000000
      axis 0.0 0.0 -90.0 xyz
   end
   begin
      id 14
      name LeftHand_dum2
      direction 1.000000 0.000000 0.000000
      length 3.937000
      axis 0.0 0.0 -90.0 xyz
   end
   begin
      id 15
      name LeftHandThumb1
      direction 0.000000 0.000000 1.000000
      length 3.937000
      axis 0.0 0.0 -90.0 xyz
      dof rx rz ry
   end
   begin
      id 16
      name RightShoulder
      direction -1.000000 0.000000 0.000000
      length 6.996006
      axis 0.0 0.0 90.0 xyz
      dof rx ry rz
   end
   begin
      id 17
      name RightArm
      direction -1.000000 0.000000 0.000000
      length 10.209302
      axis 0.0 0.0 90.0 xyz
      dof rx ry rz
   end
   begin
      id 18
      name RightForeArm
      direction -1.000000 0.000000 0.000000
      length 8.563163
      axis 0.0 0.0 90.0 xyz
      dof ry rz rx
   end
   begin
      id 19
      name RightHand
      direction 0.000000 0.000000 0.000000
      length 0.000000
      axis 0.0 0.0 90.0 xyz
      dof rx ry rz
   end
   begin
      id 20
      name RightHand_dum1
      direction 0.000000 0.000000 0.000000
      length 0.000000
      axis 0.0 0.0 90.0 xyz
   end
   begin
      id 21
      name RightHand_dum2
      direction -1.000000 0.000000 0.000000
      length 3.937000
      axis 0.0 0.0 90.0 xyz
   end
   begin
      id 22
      name RightHandThumb1
      direction 0.000000 0.000000 1.000000
      length 3.937000
      axis 0.0 0.0 90.0 xyz
      dof rx rz ry
   end
   begin
      id 23
      name LeftUpLeg
      direction 0.000000 -1.000000 0.000000
      length 16.346831
      axis 0.0 0.0 0.0 xyz
      dof rx ry rz
   end
   begin
      id 24
      name LeftLeg
      direction 0.000000 -1.000000 0.000000
      length 13.959795
      axis 0.0 0.0 0.0 xyz
      dof rx ry rz
   end
   begin
      id 25
      name LeftFoot
      direction 0.000000 -0.258819 0.965926
      length 5.165550
      axis 15.0 0.0 0.0 xyz
      dof rx ry rz
   end
   begin
      id 26
      name LeftToeBase
      direction 0.000000 0.000000 1.000000
      length 2.952750
      axis 0.0 0.0 0.0 xyz
      dof rx ry rz
   end
   begin
      id 27
      name RightUpLeg
      direction 0.000000 -1.000000 0.000000
      length 16.346831
      axis 0.0 0.0 0.0 xyz
      dof rx ry rz
   end
   begin
      id 28
      name RightLeg
      direction 0.000000 -1.000000 0.000000
      length 13.959795
      axis 0.0 0.0 0.0 xyz
      dof rx ry rz
   end
   begin
      id 29
      name RightFoot
      direction 0.000000 -0.258819 0.965926
      length 5.165550
      axis 15.0 0.0 0.0 xyz
      dof rx ry rz
   end
   begin
      id 30
      name RightToeBase
      direction 0.000000 0.000000 1.000000
      length 2.952750
      axis 0.0 0.0 0.0 xyz
      dof rx ry rz
   end
:hierarchy
   begin
      root Spine_dum LeftUpLeg_dum RightUpLeg_dum
      Spine_dum Spine
      LeftUpLeg_dum LeftUpLeg
      RightUpLeg_dum RightUpLeg
      Spine Spine_dum1 Spine_dum2 Spine_dum3
      Spine_dum1 Head
      Spine_dum2 LeftShoulder
      Spine_dum3 RightShoulder
      LeftShoulder LeftArm
      LeftArm LeftForeArm
      LeftForeArm LeftHand
      LeftHand LeftHand_dum1 LeftHand_dum2
      LeftHand_dum1 LeftHandThumb1
      RightShoulder RightArm
      RightArm RightForeArm
      RightForeArm RightHand
      RightHand RightHand_dum1 RightHand_dum2
      RightHand_dum1 RightHandThumb1
      LeftUpLeg LeftLeg
      LeftLeg LeftFoot
      LeftFoot LeftToeBase
      RightUpLeg RightLeg
      RightLeg RightFoot
      RightFoot RightToeBase
   end

# File created by Blade
# Date/Time:  Tue Jan 27 18:55:50 2015
# Frame Rate: 120.000 fps
#------------------------------------------------------
:FULLY-SPECIFIED
:DEGREES
978
root -1.691195 31.761263 -4.909045 2.108441 31.043316 -2.928842
Spine -0.478270 -11.664963 -2.115485
Head 12.345223 -1.175445 5.912368
LeftShoulder -14.600288 12.466212 14.244224
LeftArm 20.768714 -23.143043 -70.457242
LeftForeArm -7.744605 -0.000000 80.642211
LeftHand -7.833510 -0.000000 23.693008
LeftHandThumb1 -26.253704 0.000000 33.147579
RightShoulder -12.365313 -4.472170 -9.274696
RightArm 5.332243 -34.680794 81.801493
RightForeArm -27.169036 -0.000000 27.315590
RightHand -13.872915 -0.000000 13.543097
RightHandThumb1 -24.326973 -0.000000 -32.862282
LeftUpLeg -7.037732 -10.890335 -3.788356
LeftLeg 18.285149 -0.000000 -0.000000
LeftFoot -24.170433 12.966749 -19.631950
LeftToeBase 10.465147 -0.000000 -0.000000
RightUpLeg -47.268294 -0.500817 4.591238
RightLeg 98.519481 -0.000000 -0.000000
RightFoot -12.627295 -7.360597 26.159654
RightToeBase 8.078921 -0.000000 -0.000000
979
root -1.657522 31.753163 -4.921792 2.253880 30.607830 -2.805078
Spine -0.553965 -11.457645 -2.145000
Head 12.268753 -1.175540 5.824877
LeftShoulder -14.660857 12.515192 14.166989
LeftArm 20.640891 -23.399616 -70.642661
LeftForeArm -7.677950 -0.000000 80.882056
LeftHand -7.826967 0.000000 23.627244
LeftHandThumb1 -26.253704 0.000000 33.147579
RightShoulder -12.357973 -4.440161 -9.319840
RightArm 5.433499 -34.578885 81.656248
RightForeArm -27.006749 -0.000000 27.165043
RightHand -13.803014 -0.000000 13.580607
RightHandThumb1 -24.326973 -0.000000 -32.862282
LeftUpLeg -7.046996 -10.711191 -3.968810
LeftLeg 18.192839 -0.000000 -0.000000
LeftFoot -24.201906 13.208753 -19.559397
LeftToeBase 10.396783 -0.000000 -0.000000
RightUpLeg -47.229957 -1.368603 4.601909
RightLeg 98.666057 -0.000000 -0.000000
RightFoot -12.678553 -7.261730 26.351516
RightToeBase 7.578312 -0.000000 -0.000000
980
root -1.620884 31.745778 -4.927394 2.346576 30.126249 -2.695074
Spine -0.615090 -11.235549 -2.166137
Head 12.273870 -1.123338 5.741071
LeftShoulder -14.701823 12.617332 14.059187
LeftArm 20.489809 -23.726599 -70.804990
LeftForeArm -7.582378 -0.000000 81.147776
LeftHand -7.900118 -0.000000 23.564744
LeftHandThumb1 -26.253704 0.000000 33.147579
RightShoulder -12.322874 -4.423322 -9.367628
RightArm 5.545691 -34.489910 81.528405
RightForeArm -26.859546 -0.000000 26.988849
RightHand -13.706993 -0.000000 13.391341
RightHandThumb1 -24.326973 -0.000000 -32.862282
LeftUpLeg -6.999117 -10.522118 -4.150602
LeftLeg 18.120903 -0.000000 -0.000000
LeftFoot -24.270936 13.436735 -19.579895
LeftToeBase 10.350966 -0.000000 -0.000000
RightUpLeg -47.131489 -2.183270 4.616106
RightLeg 98.837728 -0.000000 -0.000000
RightFoot -12.752424 -7.234298 26.193880
RightToeBase 7.298486 -0.000000 -0.000000
981
root -1.584908 31.739125 -4.931768 2.423908 29.596203 -2.617710
Spine -0.678627 -10.977580 -2.155235
Head 12.300888 -1.122878 5.637605
LeftShoulder -14.755410 12.699897 13.936303
LeftArm 20.297271 -24.040369 -70.904010
LeftForeArm -7.534030 -0.000000 81.414953
LeftHand -7.980497 -0.000000 23.510083
LeftHandThumb1 -26.253704 0.000000 33.147579
RightShoulder -12.313593 -4.339395 -9.430061
RightArm 5.618069 -34.447775 81.418517
RightForeArm -26.801059 -0.000000 26.847745
RightHand -13.842479 -0.000000 13.177275
RightHandThumb1 -24.326973 -0.000000 -32.862282
LeftUpLeg -6.951044 -10.290073 -4.305824
LeftLeg 18.047880 -0.000000 -0.000000
LeftFoot -24.357546 13.675770 -19.597335
LeftToeBase 10.377897 -0.000000 -0.000000
RightUpLeg -47.045751 -2.942653 4.651950
RightLeg 99.038158 -0.000000 -0.000000
RightFoot -12.820837 -7.222040 26.083722
RightToeBase 7.254267 -0.000000 -0.000000
982
root -1.548770 31.733037 -4.936757 2.498938 29.025296 -2.549879
Spine -0.739469 -10.700368 -2.136643
Head 12.323840 -1.113776 5.548187
LeftShoulder -14.772972 12.691377 13.797515
LeftArm 19.954921 -24.380690 -70.861619
LeftForeArm -7.542730 -0.000000 81.706159
LeftHand -8.035059 -0.000000 23.483104
LeftHandThumb1 -26.253704 0.000000 33.147579
RightShoulder -12.317573 -4.264652 -9.499428
RightArm 5.739284 -34.417671 81.277184
RightForeArm -26.778996 -0.000000 26.720921
RightHand -13.977133 -0.000000 12.935225
RightHandThumb1 -24.326973 -0.000000 -32.862282
LeftUpLeg -6.929389 -10.098650 -4.455718
LeftLeg 18.029959 -0.000000 -0.000000
LeftFoot -24.517898 13.911938 -19.733628
LeftToeBase 10.483981 -0.000000 -0.000000
RightUpLeg -46.975943 -3.689818 4.695381
RightLeg 99.271626 -0.000000 -0.000000
RightFoot -12.935247 -7.253139 25.882172
RightToeBase 7.328603 -0.000000 -0.000000
983
root -1.513699 31.726717 -4.942292 2.550403 28.371735 -2.480542
Spine -0.772109 -10.398112 -2.131244
Head 12.357302 -0.984820 5.471915
LeftShoulder -14.860052 12.801843 13.679809
LeftArm 19.752697 -24.776983 -71.019814
LeftForeArm -7.545043 0.000000 81.988104
LeftHand -8.123606 -0.000000 23.466388
LeftHandThumb1 -26.253704 0.000000 33.147579
RightShoulder -12.268104 -4.152174 -9.579823
RightArm 5.871975 -34.407506 81.132995
RightForeArm -26.749097 -0.000000 26.568259
RightHand -13.713091 -0.000000 13.155273
RightHandThumb1 -24.326973 -0.000000 -32.862282
LeftUpLeg -6.887093 -9.896535 -4.616622
LeftLeg 18.011966 -0.000000 -0.000000
LeftFoot -24.671899 14.246361 -19.840654
LeftToeBase 10.530111 -0.000000 -0.000000
RightUpLeg -46.895358 -4.318440 4.695492
RightLeg 99.541937 -0.000000 -0.000000
RightFoot -12.954569 -7.248990 25.567426
RightToeBase 7.345082 -0.000000 -0.000000
984
root -1.480288 31.720490 -4.945028 2.584902 27.695235 -2.450727
Spine -0.805932 -10.104320 -2.090428
Head 12.399370 -0.832367 5.396392
LeftShoulder -14.966163 12.958483 13.559858
LeftArm 19.521821 -25.168502 -71.146325
LeftForeArm -7.599361 -0.000000 82.272649
LeftHand -8.075871 -0.000000 23.377093
LeftHandThumb1 -26.253704 0.000000 33.147579
RightShoulder -12.211986 -4.021207 -9.661754
RightArm 5.978173 -34.349034 81.019292
RightForeArm -26.718927 0.000000 26.469518
RightHand -13.575524 0.000000 13.288518
RightHandThumb1 -24.326973 -0.000000 -32.862282
LeftUpLeg -6.843873 -9.692211 -4.743864
LeftLeg 17.997442 -0.000000 -0.000000
LeftFoot -24.876217 14.593484 -19.983424
LeftToeBase 10.617869 -0.000000 -0.000000
RightUpLeg -46.819023 -4.903021 4.713413
RightLeg 99.839084 -0.000000 -0.000000
RightFoot -12.978590 -7.241259 25.369894
RightToeBase 7.274166 -0.000000 -0.000000
985
root -1.443677 31.714290 -4.947044 2.616740 26.999475 -2.416093
Spine -0.839860 -9.829562 -2.043960
Head 12.464393 -0.648124 5.292989
LeftShoulder -15.089966 13.090109 13.429963
LeftArm 19.253305 -25.581859 -71.253790
LeftForeArm -7.649898 -0.000000 82.535023
LeftHand -8.052242 -0.000000 23.310336
LeftHandThumb1 -26.253704 0.000000 33.147579
RightShoulder -12.157040 -3.930679 -9.756993
RightArm 6.203471 -34.373812 80.832081
RightForeArm -26.581579 0.000000 26.371458
RightHand -13.675615 0.000000 13.110649
RightHandThumb1 -24.326973 -0.000000 -32.862282
LeftUpLeg -6.797619 -9.498632 -4.884730
LeftLeg 17.988586 -0.000000 -0.000000
LeftFoot -25.070978 14.993743 -20.096998
LeftToeBase 10.617596 -0.000000 -0.000000
RightUpLeg -46.748443 -5.467165 4.705219
RightLeg 100.163280 -0.000000 -0.000000
RightFoot -12.995452 -7.307428 25.218226
RightToeBase 7.095639 -0.000000 -0.000000
986
root -1.410118 31.708845 -4.948006 2.658060 26.242839 -2.408672
Spine -0.892206 -9.538338 -1.973450
Head 12.489233 -0.402948 5.199770
LeftShoulder -15.245254 13.219215 13.297320
LeftArm 18.947753 -26.006236 -71.338761
LeftForeArm -7.744476 -0.000000 82.808268
LeftHand -8.028011 -0.000000 23.309188
LeftHandThumb1 -26.253704 0.000000 33.147579
RightShoulder -12.085263 -3.809437 -9.847236
RightArm 6.348810 -34.266263 80.713516
RightForeArm -26.672187 -0.000000 26.360574
RightHand -13.825230 -0.000000 12.996825
RightHandThumb1 -24.326973 -0.000000 -32.862282
LeftUpLeg -6.770549 -9.274956 -4.995365
LeftLeg 17.970522 -0.000000 -0.000000
LeftFoot -25.270813 15.423488 -20.181700
LeftToeBase 10.490340 -0.000000 -0.000000
RightUpLeg -46.706044 -5.950378 4.702668
RightLeg 100.499604 -0.000000 -0.000000
RightFoot -12.994423 -7.275884 24.996828
RightToeBase 7.266173 -0.000000 -0.000000
987
root -1.374420 31.701832 -4.949745 2.699158 25.480512 -2.409251
Spine -0.948711 -9.238077 -1.875880
Head 12.507053 -0.139618 5.100978
LeftShoulder -15.372223 13.350766 13.149367
LeftArm 18.614586 -26.455867 -71.389684
LeftForeArm -7.886776 -0.000000 83.077396
LeftHand -7.967433 0.000000 23.260510
LeftHandThumb1 -26.253704 0.000000 33.147579
RightShoulder -12.042400 -3.673627 -9.957387
RightArm 6.536898 -34.237157 80.556091
RightForeArm -26.785111 -0.000000 26.345351
RightHand -13.846190 -0.000000 13.062754
RightHandThumb1 -24.326973 -0.000000 -32.862282
LeftUpLeg -6.760641 -9.067458 -5.106271
LeftLeg 17.982286 -0.000000 -0.000000
LeftFoot -25.520977 15.840673 -20.337064
LeftToeBase 10.494670 -0.000000 -0.000000
RightUpLeg -46.682915 -6.426070 4.665856
RightLeg 100.839262 -0.000000 -0.000000
RightFoot -12.911323 -7.280289 24.930876
RightToeBase 7.115218 -0.000000 -0.000000
988
root -1.339331 31.696621 -4.948025 2.689990 24.703863 -2.404950
Spine -0.916869 -8.918299 -1.841015
Head 12.510160 0.018706 5.045631
LeftShoulder -15.518374 13.499242 13.042208
LeftArm 18.320491 -26.932958 -71.492295
LeftForeArm -7.847130 -0.000000 83.374354
LeftHand -8.031159 -0.000000 22.969145
LeftHandThumb1 -26.253704 0.000000 33.147579
RightShoulder -12.002450 -3.501243 -10.028575
RightArm 6.611815 -34.085502 80.470325
RightForeArm -26.695776 0.000000 26.419381
RightHand -13.865977 0.000000 12.817353
RightHandThumb1 -24.326973 -0.000000 -32.862282
LeftUpLeg -6.680760 -8.885345 -5.226837
LeftLeg 17.963548 -0.000000 -0.000000
LeftFoot -25.763585 16.297692 -20.504272
LeftToeBase 10.530747 -0.000000 -0.000000
RightUpLeg -46.606562 -6.887938 4.664198
RightLeg 101.176999 -0.000000 -0.000000
RightFoot -12.837591 -7.499234 24.475333
RightToeBase 6.990394 -0.000000 -0.000000
